<svg width="149" height="59" viewBox="0 0 149 59" fill="none" xmlns="http://www.w3.org/2000/svg">
<path d="M15.0416 7.07694L0.329056 0C0.0807427 5.83537 -0.266897 19.8154 0.329056 29.0527C0.925009 38.29 10.3858 41.4684 15.0416 41.903V7.07694Z" fill="#EAE9F1"/>
<path d="M34.2675 58.2917V43.9515H7.44958C8.19453 54.3807 16.5751 57.8571 20.6723 58.2917H34.2675Z" fill="#EAE9F1"/>
<path d="M132.752 42.7688V38.9151H136.055C136.681 38.9151 137.199 38.8287 137.61 38.656C138.041 38.5049 138.398 38.2458 138.678 37.8788C138.959 37.5333 139.175 37.0476 139.326 36.4215L144.054 18.2539H148.361L143.147 37.393C142.802 38.71 142.316 39.7571 141.69 40.5343C141.064 41.3331 140.254 41.9052 139.261 42.2507C138.29 42.5961 137.081 42.7688 135.634 42.7688H132.752ZM138.225 35.45V31.8877H141.982V35.45H138.225ZM136.703 35.45L131.003 18.2539H135.537L140.945 35.45H136.703Z" fill="#EAE9F1"/>
<path d="M126.966 36.0653C125.347 36.0653 124.008 35.8602 122.95 35.45C121.914 35.0182 121.137 34.3057 120.619 33.3126C120.101 32.2979 119.842 30.9378 119.842 29.2322L119.874 13.2991H124.084L124.052 29.5236C124.052 30.3872 124.278 31.0565 124.732 31.5315C125.207 31.9848 125.876 32.2115 126.739 32.2115H129.492V36.0653H126.966ZM117.057 21.5571V18.2539H129.492V21.5571H117.057Z" fill="#EAE9F1"/>
<path d="M109.683 35.8386V12.1981H114.184V35.8386H109.683ZM107.481 15.566V12.1981H114.184V15.566H107.481Z" fill="#EAE9F1"/>
<path d="M101.072 35.8386V30.6247H100.328V24.8279C100.328 23.8132 100.079 23.0576 99.5828 22.561C99.0862 22.0645 98.3198 21.8162 97.2835 21.8162C96.7438 21.8162 96.0961 21.827 95.3404 21.8486C94.5848 21.8702 93.8184 21.9025 93.0412 21.9457C92.2855 21.9673 91.6055 21.9997 91.001 22.0429V18.2215C91.4975 18.1784 92.0588 18.1352 92.6849 18.092C93.311 18.0488 93.9479 18.0272 94.5956 18.0272C95.2649 18.0056 95.891 17.9949 96.4739 17.9949C98.2874 17.9949 99.7879 18.2323 100.975 18.7073C102.184 19.1823 103.091 19.9271 103.696 20.9418C104.322 21.9565 104.635 23.2843 104.635 24.9251V35.8386H101.072ZM95.4052 36.292C94.1314 36.292 93.0088 36.0653 92.0373 35.6119C91.0873 35.1585 90.3425 34.5108 89.8027 33.6688C89.2846 32.8268 89.0255 31.8121 89.0255 30.6247C89.0255 29.3293 89.3386 28.2715 89.9647 27.4511C90.6123 26.6307 91.5083 26.0154 92.6525 25.6051C93.8184 25.1949 95.1785 24.9898 96.733 24.9898H100.813V27.6777H96.6682C95.6319 27.6777 94.8331 27.9368 94.2718 28.455C93.732 28.9515 93.4622 29.5992 93.4622 30.398C93.4622 31.1968 93.732 31.8445 94.2718 32.3411C94.8331 32.8376 95.6319 33.0859 96.6682 33.0859C97.2943 33.0859 97.8664 32.978 98.3846 32.7621C98.9243 32.5246 99.3669 32.136 99.7123 31.5962C100.079 31.0349 100.284 30.2793 100.328 29.3293L101.429 30.5923C101.321 31.8229 101.018 32.8592 100.522 33.7012C100.047 34.5432 99.3777 35.1909 98.5141 35.6443C97.6721 36.0761 96.6358 36.292 95.4052 36.292Z" fill="#EAE9F1"/>
<path d="M71.9367 42.7688V38.9151H75.2399C75.866 38.9151 76.3842 38.8287 76.7944 38.656C77.2262 38.5049 77.5824 38.2458 77.8631 37.8788C78.1437 37.5333 78.3596 37.0476 78.5107 36.4215L83.2388 18.2539H87.5459L82.3321 37.393C81.9867 38.71 81.5009 39.7571 80.8748 40.5343C80.2487 41.3331 79.4391 41.9052 78.446 42.2507C77.4744 42.5961 76.2654 42.7688 74.8189 42.7688H71.9367ZM77.4097 35.45V31.8877H81.1662V35.45H77.4097ZM75.8876 35.45L70.188 18.2539H74.7218L80.13 35.45H75.8876Z" fill="#EAE9F1"/>
<path d="M59.307 36.4539C57.7525 36.4539 56.3816 36.2056 55.1942 35.709C54.0067 35.2125 53.0028 34.5432 52.1824 33.7012C51.362 32.8376 50.7359 31.8661 50.3041 30.7866C49.8939 29.7072 49.6888 28.5845 49.6888 27.4187V26.7386C49.6888 25.5296 49.9047 24.3853 50.3365 23.3059C50.7899 22.2048 51.4268 21.2333 52.2472 20.3913C53.0892 19.5277 54.1039 18.8584 55.2913 18.3835C56.4787 17.8869 57.8173 17.6386 59.307 17.6386C60.7966 17.6386 62.1352 17.8869 63.3226 18.3835C64.51 18.8584 65.514 19.5277 66.3344 20.3913C67.1763 21.2333 67.8132 22.2048 68.245 23.3059C68.6768 24.3853 68.8927 25.5296 68.8927 26.7386V27.4187C68.8927 28.5845 68.6768 29.7072 68.245 30.7866C67.8348 31.8661 67.2195 32.8376 66.3991 33.7012C65.5787 34.5432 64.5748 35.2125 63.3874 35.709C62.2 36.2056 60.8398 36.4539 59.307 36.4539ZM59.307 32.6001C60.408 32.6001 61.3364 32.3627 62.092 31.8877C62.8476 31.3911 63.4198 30.7327 63.8084 29.9123C64.197 29.0703 64.3913 28.1203 64.3913 27.0624C64.3913 25.983 64.1862 25.033 63.776 24.2126C63.3874 23.3706 62.8045 22.7122 62.0272 22.2372C61.2716 21.7406 60.3649 21.4923 59.307 21.4923C58.2491 21.4923 57.3315 21.7406 56.5543 22.2372C55.7987 22.7122 55.2158 23.3706 54.8056 24.2126C54.3954 25.033 54.1903 25.983 54.1903 27.0624C54.1903 28.1203 54.3846 29.0703 54.7732 29.9123C55.1834 30.7327 55.7663 31.3911 56.5219 31.8877C57.2776 32.3627 58.2059 32.6001 59.307 32.6001Z" fill="#EAE9F1"/>
<path d="M41.2145 35.8386V12.1981H45.7159V35.8386H41.2145ZM39.0123 15.566V12.1981H45.7159V15.566H39.0123Z" fill="#EAE9F1"/>
<path d="M108.944 55.2691V49.7353H109.732V52.1084H109.607C109.607 51.5695 109.677 51.1136 109.815 50.7405C109.96 50.3605 110.174 50.0704 110.457 49.87C110.74 49.6697 111.1 49.5695 111.535 49.5695H111.576C112.012 49.5695 112.371 49.6697 112.654 49.87C112.944 50.0704 113.158 50.3605 113.297 50.7405C113.435 51.1136 113.504 51.5695 113.504 52.1084H113.214C113.214 51.5695 113.286 51.1136 113.431 50.7405C113.576 50.3605 113.791 50.0704 114.074 49.87C114.364 49.6697 114.727 49.5695 115.162 49.5695H115.203C115.639 49.5695 116.001 49.6697 116.292 49.87C116.582 50.0704 116.796 50.3605 116.934 50.7405C117.079 51.1136 117.152 51.5695 117.152 52.1084V55.2691H116.157V51.8908C116.157 51.4417 116.046 51.0963 115.825 50.8545C115.604 50.6058 115.297 50.4814 114.903 50.4814C114.495 50.4814 114.167 50.6127 113.918 50.8752C113.67 51.1308 113.545 51.4901 113.545 51.953V55.2691H112.551V51.8908C112.551 51.4417 112.44 51.0963 112.219 50.8545C111.998 50.6058 111.69 50.4814 111.297 50.4814C110.889 50.4814 110.561 50.6127 110.312 50.8752C110.063 51.1308 109.939 51.4901 109.939 51.953V55.2691H108.944Z" fill="#EAE9F1"/>
<path d="M100.03 55.2691V49.7353H100.818V52.0152H100.777C100.777 51.2068 100.953 50.6162 101.305 50.2431C101.664 49.8631 102.2 49.6731 102.911 49.6731H103.098V50.5643H102.745C102.193 50.5643 101.768 50.7129 101.471 51.0099C101.174 51.3001 101.025 51.7215 101.025 52.2742V55.2691H100.03Z" fill="#EAE9F1"/>
<path d="M90.9133 55.4557C90.4297 55.4557 90.0048 55.3728 89.6386 55.2069C89.2725 55.0411 88.9616 54.8235 88.706 54.5541C88.4572 54.2777 88.2673 53.9703 88.136 53.6318C88.0116 53.2933 87.9495 52.9478 87.9495 52.5955V52.4089C87.9495 52.0566 88.0151 51.7112 88.1464 51.3726C88.2776 51.0272 88.4711 50.7198 88.7267 50.4503C88.9823 50.174 89.2932 49.9564 89.6594 49.7975C90.0255 49.6317 90.4435 49.5488 90.9133 49.5488C91.3831 49.5488 91.801 49.6317 92.1672 49.7975C92.5333 49.9564 92.8442 50.174 93.0999 50.4503C93.3555 50.7198 93.5489 51.0272 93.6802 51.3726C93.8114 51.7112 93.8771 52.0566 93.8771 52.4089V52.5955C93.8771 52.9478 93.8114 53.2933 93.6802 53.6318C93.5558 53.9703 93.3658 54.2777 93.1102 54.5541C92.8615 54.8235 92.5541 55.0411 92.1879 55.2069C91.8218 55.3728 91.3969 55.4557 90.9133 55.4557ZM90.9133 54.5644C91.3278 54.5644 91.6801 54.4746 91.9703 54.295C92.2674 54.1085 92.4919 53.8598 92.6439 53.5489C92.8028 53.238 92.8822 52.8891 92.8822 52.5022C92.8822 52.1084 92.8028 51.7561 92.6439 51.4452C92.485 51.1343 92.257 50.889 91.9599 50.7094C91.6698 50.5298 91.3209 50.44 90.9133 50.44C90.5126 50.44 90.1637 50.5298 89.8666 50.7094C89.5695 50.889 89.3416 51.1343 89.1827 51.4452C89.0238 51.7561 88.9443 52.1084 88.9443 52.5022C88.9443 52.8891 89.0203 53.238 89.1723 53.5489C89.3312 53.8598 89.5557 54.1085 89.8459 54.295C90.143 54.4746 90.4988 54.5644 90.9133 54.5644Z" fill="#EAE9F1"/>
<path d="M79.9596 55.2691V49.4555C79.9596 48.8406 80.122 48.3881 80.4467 48.098C80.7714 47.8078 81.2481 47.6627 81.8768 47.6627H82.5607V48.4917H81.7109C81.4553 48.4917 81.2584 48.5643 81.1203 48.7094C80.9821 48.8475 80.913 49.041 80.913 49.2897V55.2691H79.9596ZM79.1927 50.5436V49.7975H82.6643V50.5436H79.1927Z" fill="#EAE9F1"/>
<path d="M72.8943 55.3313C72.4798 55.3313 72.1206 55.2726 71.8166 55.1551C71.5195 55.0377 71.2881 54.8373 71.1223 54.5541C70.9634 54.2639 70.8839 53.8736 70.8839 53.3831V48.0565H71.8373V53.5074C71.8373 53.8045 71.9168 54.0359 72.0757 54.2017C72.2415 54.3606 72.4729 54.4401 72.77 54.4401H73.7441V55.3313H72.8943ZM69.9305 50.4814V49.7353H73.7441V50.4814H69.9305Z" fill="#EAE9F1"/>
<path d="M63.462 55.2691V53.611H63.2962V51.6939C63.2962 51.3139 63.196 51.0272 62.9957 50.8338C62.8022 50.6403 62.5155 50.5436 62.1355 50.5436C61.9214 50.5436 61.7003 50.5471 61.4723 50.554C61.2443 50.5609 61.0267 50.5678 60.8194 50.5747C60.6122 50.5816 60.4326 50.592 60.2806 50.6058V49.7353C60.4326 49.7215 60.5915 49.7111 60.7573 49.7042C60.93 49.6904 61.1061 49.6835 61.2858 49.6835C61.4654 49.6766 61.6381 49.6731 61.8039 49.6731C62.3704 49.6731 62.8333 49.7422 63.1926 49.8804C63.5518 50.0116 63.8178 50.2293 63.9905 50.5332C64.1632 50.8372 64.2496 51.2483 64.2496 51.7664V55.2691H63.462ZM61.6485 55.4142C61.234 55.4142 60.8747 55.3451 60.5707 55.2069C60.2737 55.0619 60.0422 54.8546 59.8764 54.5852C59.7175 54.3157 59.6381 53.991 59.6381 53.611C59.6381 53.2173 59.7244 52.8891 59.8971 52.6266C60.0768 52.364 60.3358 52.1671 60.6744 52.0359C61.0129 51.8977 61.4205 51.8286 61.8972 51.8286H63.3998V52.5748H61.8557C61.455 52.5748 61.1476 52.6715 60.9334 52.8649C60.7193 53.0584 60.6122 53.3071 60.6122 53.611C60.6122 53.915 60.7193 54.1603 60.9334 54.3468C61.1476 54.5334 61.455 54.6266 61.8557 54.6266C62.0906 54.6266 62.3152 54.5852 62.5293 54.5023C62.7435 54.4124 62.9197 54.2674 63.0578 54.067C63.2029 53.8598 63.2824 53.5765 63.2962 53.2173L63.5656 53.611C63.5311 54.0048 63.4344 54.3365 63.2755 54.6059C63.1235 54.8684 62.9093 55.0688 62.633 55.2069C62.3635 55.3451 62.0354 55.4142 61.6485 55.4142Z" fill="#EAE9F1"/>
<path d="M52.5484 55.2691V47.7042H53.5432V55.2691H52.5484ZM51.7815 48.4917V47.7042H53.5432V48.4917H51.7815Z" fill="#EAE9F1"/>
<path d="M40.6781 57.3417V49.7353H41.4657V52.1291L41.2792 52.1084C41.3137 51.5143 41.4381 51.0307 41.6522 50.6576C41.8733 50.2776 42.16 49.9978 42.5123 49.8182C42.8647 49.6386 43.2481 49.5488 43.6626 49.5488C44.0633 49.5488 44.426 49.6248 44.7507 49.7768C45.0824 49.9287 45.3656 50.136 45.6005 50.3985C45.8354 50.6611 46.015 50.965 46.1394 51.3105C46.2637 51.6559 46.3259 52.0221 46.3259 52.4089V52.5955C46.3259 52.9824 46.2603 53.3485 46.129 53.694C45.9978 54.0394 45.8112 54.3434 45.5694 54.6059C45.3345 54.8684 45.0513 55.0757 44.7197 55.2277C44.3949 55.3797 44.0357 55.4557 43.6419 55.4557C43.2481 55.4557 42.8716 55.3693 42.5123 55.1966C42.1531 55.0239 41.856 54.7441 41.6211 54.3572C41.3862 53.9703 41.2515 53.4625 41.217 52.8338L41.6729 53.6629V57.3417H40.6781ZM43.4865 54.5852C43.8595 54.5852 44.1842 54.4988 44.4606 54.3261C44.7369 54.1465 44.9511 53.9012 45.1031 53.5903C45.2551 53.2725 45.3311 52.9098 45.3311 52.5022C45.3311 52.0877 45.2551 51.725 45.1031 51.4141C44.9511 51.1032 44.7369 50.8614 44.4606 50.6887C44.1842 50.5091 43.8595 50.4193 43.4865 50.4193C43.1548 50.4193 42.8474 50.4953 42.5642 50.6472C42.2809 50.7923 42.0529 51.0065 41.8802 51.2897C41.7144 51.5661 41.6315 51.9012 41.6315 52.295V52.7716C41.6315 53.1516 41.7179 53.4763 41.8906 53.7458C42.0633 54.0152 42.2913 54.2225 42.5745 54.3675C42.8578 54.5126 43.1618 54.5852 43.4865 54.5852Z" fill="#EAE9F1"/>
</svg>
