<svg width="345" height="135" viewBox="0 0 345 135" fill="none" xmlns="http://www.w3.org/2000/svg">
<path d="M34.8356 16.3898L0.762075 0C0.186995 13.5144 -0.618116 45.8914 0.762075 67.2843C2.14227 88.6773 24.0528 96.0383 34.8356 97.0447V16.3898Z" fill="#5F37F5"/>
<path d="M79.361 135V101.789H17.2524C18.9776 125.942 38.3866 133.994 47.8754 135H79.361Z" fill="url(#paint0_linear_3_48)"/>
<path d="M95.45 83V28.25H105.875V83H95.45ZM90.35 36.05V28.25H105.875V36.05H90.35ZM137.352 84.425C133.752 84.425 130.577 83.85 127.827 82.7C125.077 81.55 122.752 80 120.852 78.05C118.952 76.05 117.502 73.8 116.502 71.3C115.552 68.8 115.077 66.2 115.077 63.5V61.925C115.077 59.125 115.577 56.475 116.577 53.975C117.627 51.425 119.102 49.175 121.002 47.225C122.952 45.225 125.302 43.675 128.052 42.575C130.802 41.425 133.902 40.85 137.352 40.85C140.802 40.85 143.902 41.425 146.652 42.575C149.402 43.675 151.727 45.225 153.627 47.225C155.577 49.175 157.052 51.425 158.052 53.975C159.052 56.475 159.552 59.125 159.552 61.925V63.5C159.552 66.2 159.052 68.8 158.052 71.3C157.102 73.8 155.677 76.05 153.777 78.05C151.877 80 149.552 81.55 146.802 82.7C144.052 83.85 140.902 84.425 137.352 84.425ZM137.352 75.5C139.902 75.5 142.052 74.95 143.802 73.85C145.552 72.7 146.877 71.175 147.777 69.275C148.677 67.325 149.127 65.125 149.127 62.675C149.127 60.175 148.652 57.975 147.702 56.075C146.802 54.125 145.452 52.6 143.652 51.5C141.902 50.35 139.802 49.775 137.352 49.775C134.902 49.775 132.777 50.35 130.977 51.5C129.227 52.6 127.877 54.125 126.927 56.075C125.977 57.975 125.502 60.175 125.502 62.675C125.502 65.125 125.952 67.325 126.852 69.275C127.802 71.175 129.152 72.7 130.902 73.85C132.652 74.95 134.802 75.5 137.352 75.5ZM166.601 99.05V90.125H174.251C175.701 90.125 176.901 89.925 177.851 89.525C178.851 89.175 179.676 88.575 180.326 87.725C180.976 86.925 181.476 85.8 181.826 84.35L192.776 42.275H202.751L190.676 86.6C189.876 89.65 188.751 92.075 187.301 93.875C185.851 95.725 183.976 97.05 181.676 97.85C179.426 98.65 176.626 99.05 173.276 99.05H166.601ZM179.276 82.1V73.85H187.976V82.1H179.276ZM175.751 82.1L162.551 42.275H173.051L185.576 82.1H175.751ZM234.078 83V70.925H232.353V57.5C232.353 55.15 231.778 53.4 230.628 52.25C229.478 51.1 227.703 50.525 225.303 50.525C224.053 50.525 222.553 50.55 220.803 50.6C219.053 50.65 217.278 50.725 215.478 50.825C213.728 50.875 212.153 50.95 210.753 51.05V42.2C211.903 42.1 213.203 42 214.653 41.9C216.103 41.8 217.578 41.75 219.078 41.75C220.628 41.7 222.078 41.675 223.428 41.675C227.628 41.675 231.103 42.225 233.853 43.325C236.653 44.425 238.753 46.15 240.153 48.5C241.603 50.85 242.328 53.925 242.328 57.725V83H234.078ZM220.953 84.05C218.003 84.05 215.403 83.525 213.153 82.475C210.953 81.425 209.228 79.925 207.978 77.975C206.778 76.025 206.178 73.675 206.178 70.925C206.178 67.925 206.903 65.475 208.353 63.575C209.853 61.675 211.928 60.25 214.578 59.3C217.278 58.35 220.428 57.875 224.028 57.875H233.478V64.1H223.878C221.478 64.1 219.628 64.7 218.328 65.9C217.078 67.05 216.453 68.55 216.453 70.4C216.453 72.25 217.078 73.75 218.328 74.9C219.628 76.05 221.478 76.625 223.878 76.625C225.328 76.625 226.653 76.375 227.853 75.875C229.103 75.325 230.128 74.425 230.928 73.175C231.778 71.875 232.253 70.125 232.353 67.925L234.903 70.85C234.653 73.7 233.953 76.1 232.803 78.05C231.703 80 230.153 81.5 228.153 82.55C226.203 83.55 223.803 84.05 220.953 84.05ZM254.019 83V28.25H264.444V83H254.019ZM248.919 36.05V28.25H264.444V36.05H248.919ZM294.046 83.525C290.296 83.525 287.196 83.05 284.746 82.1C282.346 81.1 280.546 79.45 279.346 77.15C278.146 74.8 277.546 71.65 277.546 67.7L277.621 30.8H287.371L287.296 68.375C287.296 70.375 287.821 71.925 288.871 73.025C289.971 74.075 291.521 74.6 293.521 74.6H299.896V83.525H294.046ZM271.096 49.925V42.275H299.896V49.925H271.096ZM307.446 99.05V90.125H315.096C316.546 90.125 317.746 89.925 318.696 89.525C319.696 89.175 320.521 88.575 321.171 87.725C321.821 86.925 322.321 85.8 322.671 84.35L333.621 42.275H343.596L331.521 86.6C330.721 89.65 329.596 92.075 328.146 93.875C326.696 95.725 324.821 97.05 322.521 97.85C320.271 98.65 317.471 99.05 314.121 99.05H307.446ZM320.121 82.1V73.85H328.821V82.1H320.121ZM316.596 82.1L303.396 42.275H313.896L326.421 82.1H316.596Z" fill="#EAE9F1"/>
<path d="M94.208 132.8V115.184H96.032V120.728L95.6 120.68C95.68 119.304 95.968 118.184 96.464 117.32C96.976 116.44 97.64 115.792 98.456 115.376C99.272 114.96 100.16 114.752 101.12 114.752C102.048 114.752 102.888 114.928 103.64 115.28C104.408 115.632 105.064 116.112 105.608 116.72C106.152 117.328 106.568 118.032 106.856 118.832C107.144 119.632 107.288 120.48 107.288 121.376V121.808C107.288 122.704 107.136 123.552 106.832 124.352C106.528 125.152 106.096 125.856 105.536 126.464C104.992 127.072 104.336 127.552 103.568 127.904C102.816 128.256 101.984 128.432 101.072 128.432C100.16 128.432 99.288 128.232 98.456 127.832C97.624 127.432 96.936 126.784 96.392 125.888C95.848 124.992 95.536 123.816 95.456 122.36L96.512 124.28V132.8H94.208ZM100.712 126.416C101.576 126.416 102.328 126.216 102.968 125.816C103.608 125.4 104.104 124.832 104.456 124.112C104.808 123.376 104.984 122.536 104.984 121.592C104.984 120.632 104.808 119.792 104.456 119.072C104.104 118.352 103.608 117.792 102.968 117.392C102.328 116.976 101.576 116.768 100.712 116.768C99.944 116.768 99.232 116.944 98.576 117.296C97.92 117.632 97.392 118.128 96.992 118.784C96.608 119.424 96.416 120.2 96.416 121.112V122.216C96.416 123.096 96.616 123.848 97.016 124.472C97.416 125.096 97.944 125.576 98.6 125.912C99.256 126.248 99.96 126.416 100.712 126.416ZM121.699 128V110.48H124.003V128H121.699ZM119.923 112.304V110.48H124.003V112.304H119.923ZM146.974 128V124.16H146.59V119.72C146.59 118.84 146.358 118.176 145.894 117.728C145.446 117.28 144.782 117.056 143.902 117.056C143.406 117.056 142.894 117.064 142.366 117.08C141.838 117.096 141.334 117.112 140.854 117.128C140.374 117.144 139.958 117.168 139.606 117.2V115.184C139.958 115.152 140.326 115.128 140.71 115.112C141.11 115.08 141.518 115.064 141.934 115.064C142.35 115.048 142.75 115.04 143.134 115.04C144.446 115.04 145.518 115.2 146.35 115.52C147.182 115.824 147.798 116.328 148.198 117.032C148.598 117.736 148.798 118.688 148.798 119.888V128H146.974ZM142.774 128.336C141.814 128.336 140.982 128.176 140.278 127.856C139.59 127.52 139.054 127.04 138.67 126.416C138.302 125.792 138.118 125.04 138.118 124.16C138.118 123.248 138.318 122.488 138.718 121.88C139.134 121.272 139.734 120.816 140.518 120.512C141.302 120.192 142.246 120.032 143.35 120.032H146.83V121.76H143.254C142.326 121.76 141.614 121.984 141.118 122.432C140.622 122.88 140.374 123.456 140.374 124.16C140.374 124.864 140.622 125.432 141.118 125.864C141.614 126.296 142.326 126.512 143.254 126.512C143.798 126.512 144.318 126.416 144.814 126.224C145.31 126.016 145.718 125.68 146.038 125.216C146.374 124.736 146.558 124.08 146.59 123.248L147.214 124.16C147.134 125.072 146.91 125.84 146.542 126.464C146.19 127.072 145.694 127.536 145.054 127.856C144.43 128.176 143.67 128.336 142.774 128.336ZM168.819 128.144C167.859 128.144 167.027 128.008 166.323 127.736C165.635 127.464 165.099 127 164.715 126.344C164.347 125.672 164.163 124.768 164.163 123.632V111.296H166.371V123.92C166.371 124.608 166.555 125.144 166.923 125.528C167.307 125.896 167.843 126.08 168.531 126.08H170.787V128.144H168.819ZM161.955 116.912V115.184H170.787V116.912H161.955ZM185.181 128V114.536C185.181 113.112 185.557 112.064 186.309 111.392C187.061 110.72 188.165 110.384 189.621 110.384H191.205V112.304H189.237C188.645 112.304 188.189 112.472 187.869 112.808C187.549 113.128 187.389 113.576 187.389 114.152V128H185.181ZM183.405 117.056V115.328H191.445V117.056H183.405ZM210.55 128.432C209.43 128.432 208.446 128.24 207.598 127.856C206.75 127.472 206.03 126.968 205.438 126.344C204.862 125.704 204.422 124.992 204.118 124.208C203.83 123.424 203.686 122.624 203.686 121.808V121.376C203.686 120.56 203.838 119.76 204.142 118.976C204.446 118.176 204.894 117.464 205.486 116.84C206.078 116.2 206.798 115.696 207.646 115.328C208.494 114.944 209.462 114.752 210.55 114.752C211.638 114.752 212.606 114.944 213.454 115.328C214.302 115.696 215.022 116.2 215.614 116.84C216.206 117.464 216.654 118.176 216.958 118.976C217.262 119.76 217.414 120.56 217.414 121.376V121.808C217.414 122.624 217.262 123.424 216.958 124.208C216.67 124.992 216.23 125.704 215.638 126.344C215.062 126.968 214.35 127.472 213.502 127.856C212.654 128.24 211.67 128.432 210.55 128.432ZM210.55 126.368C211.51 126.368 212.326 126.16 212.998 125.744C213.686 125.312 214.206 124.736 214.557 124.016C214.925 123.296 215.109 122.488 215.109 121.592C215.109 120.68 214.925 119.864 214.557 119.144C214.19 118.424 213.662 117.856 212.974 117.44C212.302 117.024 211.494 116.816 210.55 116.816C209.622 116.816 208.814 117.024 208.126 117.44C207.438 117.856 206.91 118.424 206.542 119.144C206.174 119.864 205.99 120.68 205.99 121.592C205.99 122.488 206.166 123.296 206.518 124.016C206.886 124.736 207.406 125.312 208.078 125.744C208.766 126.16 209.59 126.368 210.55 126.368ZM231.664 128V115.184H233.488V120.464H233.392C233.392 118.592 233.8 117.224 234.616 116.36C235.448 115.48 236.688 115.04 238.336 115.04H238.768V117.104H237.952C236.672 117.104 235.688 117.448 235 118.136C234.312 118.808 233.968 119.784 233.968 121.064V128H231.664ZM252.308 128V115.184H254.132V120.68H253.844C253.844 119.432 254.004 118.376 254.324 117.512C254.66 116.632 255.156 115.96 255.812 115.496C256.468 115.032 257.3 114.8 258.308 114.8H258.404C259.412 114.8 260.244 115.032 260.9 115.496C261.572 115.96 262.068 116.632 262.388 117.512C262.708 118.376 262.868 119.432 262.868 120.68H262.196C262.196 119.432 262.364 118.376 262.7 117.512C263.036 116.632 263.532 115.96 264.188 115.496C264.86 115.032 265.7 114.8 266.708 114.8H266.804C267.812 114.8 268.652 115.032 269.324 115.496C269.996 115.96 270.492 116.632 270.812 117.512C271.148 118.376 271.316 119.432 271.316 120.68V128H269.012V120.176C269.012 119.136 268.756 118.336 268.244 117.776C267.732 117.2 267.02 116.912 266.108 116.912C265.164 116.912 264.404 117.216 263.828 117.824C263.252 118.416 262.964 119.248 262.964 120.32V128H260.66V120.176C260.66 119.136 260.404 118.336 259.892 117.776C259.38 117.2 258.668 116.912 257.756 116.912C256.812 116.912 256.052 117.216 255.476 117.824C254.9 118.416 254.612 119.248 254.612 120.32V128H252.308Z" fill="#5E37F4"/>
<defs>
<linearGradient id="paint0_linear_3_48" x1="22" y1="111.5" x2="83" y2="122" gradientUnits="userSpaceOnUse">
<stop stop-color="#5E37F4"/>
<stop offset="0.475962" stop-color="#FC408E"/>
<stop offset="1" stop-color="#FC952E"/>
</linearGradient>
</defs>
</svg>
